<svg xmlns="http://www.w3.org/2000/svg" viewBox="0 0 23 23"><path d="M1 1h7v7h-7zM11 1h1v1h2v4h-1v-1h-3v1h3v1h-1v1h-1v-1h-1v2h-1v-6h1v-1h1zM15 1h7v7h-7zM2 2v5h5v-5zM16 2v5h5v-5zM3 3h3v3h-3zM11 3v1h1v-1zM17 3h3v3h-3zM13 7h1v1h-1zM1 9h1v1h-1zM3 9h5v1h-1v1h1v1h-2v2h-1v-1h-2v-1h-1v1h-1v-2h3v-1h-1zM10 9h3v1h1v1h1v-2h5v1h-2v1h-2v1h-1v1h-1v2h-1v-2h-1v-1h1v-1h-1v1h-1v-2h-1zM5 10v1h1v-1zM21 10h1v1h-1zM9 11h1v2h2v1h-2v1h-1zM18 11h1v1h1v1h-2v2h-2v-1h-1v-1h1v-1h2zM20 11h1v1h-1zM21 12h1v3h-1zM2 13h1v1h-1zM7 13h1v1h-1zM1 15h7v7h-7zM11 15h2v1h-1v1h1v1h3v-1h1v1h1v1h-2v1h2v-1h1v-1h1v3h-3v1h-1v-1h-2v1h-1v-1h-1v1h-1v-2h2v-1h-1v-1h-1v-1h-1v1h1v1h-1v1h-1v-4h2zM14 15h1v1h-1zM19 15h2v2h-4v-1h2zM2 16v5h5v-5zM3 17h3v3h-3zM21 17h1v1h-1zM14 19v1h1v-1zM9 21h1v1h-1zM20 21h1v1h-1z"/></svg>